Coordinates
version=1
nRows=11
nColumns=40
inDegrees=yes

Units are S.I. units (second, meters, Newtons, ...)
If the header above contains a line with 'inDegrees', this indicates whether rotational values are in degrees (yes) or radians (no).

endheader
time	pelvis_tilt	pelvis_list	pelvis_rotation	pelvis_tx	pelvis_ty	pelvis_tz	hip_flexion_r	hip_adduction_r	hip_rotation_r	knee_angle_r	knee_angle_r_beta	ankle_angle_r	subtalar_angle_r	mtp_angle_r	hip_flexion_l	hip_adduction_l	hip_rotation_l	knee_angle_l	knee_angle_l_beta	ankle_angle_l	subtalar_angle_l	mtp_angle_l	lumbar_extension	lumbar_bending	lumbar_rotation	arm_flex_r	arm_add_r	arm_rot_r	elbow_flex_r	pro_sup_r	wrist_flex_r	wrist_dev_r	arm_flex_l	arm_add_l	arm_rot_l	elbow_flex_l	pro_sup_l	wrist_flex_l	wrist_dev_l
      4.27000000	    -15.90232154	     13.20089858	     -4.82536807	     -4.20610645	      0.89769749	      0.29531561	    -16.96669237	    -11.71828364	     -7.36028766	     18.53315089	      0.32346450	    -17.76391674	      0.00000000	      0.00000000	     68.35782475	      5.01848050	     -6.95040281	     93.38141688	      1.62981318	     25.63569583	      0.00000000	      0.00000000	    -21.72770189	    -17.41167788	      4.89132776	     34.69748481	    -14.40291452	     32.98419206	    124.51991903	     85.67774495	      0.00000000	      0.00000000	    -59.88832859	    -31.96131347	    -19.80299479	    118.99367684	      3.02299370	      0.00000000	      0.00000000
      4.27500000	    -15.81389056	     13.36031268	     -4.15130383	     -4.17856220	      0.89942534	      0.29507802	    -18.08489753	    -11.51644545	     -6.40494505	     18.60083635	      0.32464584	    -20.23109520	      0.00000000	      0.00000000	     68.23119343	      5.51115684	     -7.35701744	     89.83930326	      1.56799164	     25.67366078	      0.00000000	      0.00000000	    -21.88316627	    -17.63952142	      4.49421900	     33.79974750	    -14.96740843	     33.11216397	    124.07496570	     87.95796590	      0.00000000	      0.00000000	    -60.18519770	    -32.04247371	    -20.09623522	    119.60848138	      1.32634657	      0.00000000	      0.00000000
      4.28000000	    -15.65905431	     13.35659191	     -3.47885330	     -4.15110254	      0.90137969	      0.29483573	    -19.01737770	    -11.09411850	     -5.22749563	     19.18007796	      0.33475551	    -22.01771391	      0.00000000	      0.00000000	     67.78106223	      5.95236702	     -7.64704932	     86.19982658	      1.50447079	     25.60738691	      0.00000000	      0.00000000	    -22.16682827	    -17.67314887	      4.09231776	     32.69243362	    -15.49646092	     33.21935849	    123.37790615	     87.94349097	      0.00000000	      0.00000000	    -60.07757413	    -32.06799290	    -20.16342298	    119.95974331	      1.33164750	      0.00000000	      0.00000000
      4.28500000	    -15.41476656	     13.19030325	     -2.80710096	     -4.12372410	      0.90353876	      0.29457789	    -19.77859111	    -10.45247232	     -3.91416222	     20.28030425	      0.35395808	    -23.18657307	      0.00000000	      0.00000000	     67.00147408	      6.34570122	     -7.81153793	     82.50659876	      1.44001180	     25.43541113	      0.00000000	      0.00000000	    -22.59281080	    -17.49500793	      3.75785988	     31.39773389	    -16.04406147	     33.09532548	    122.44954097	     88.04844243	      0.00000000	      0.00000000	    -59.46165747	    -32.16405293	    -19.89133057	    120.14978206	      1.32578423	      0.00000000	      0.00000000
      4.29000000	    -15.06596117	     12.88268510	     -2.14008415	     -4.09640497	      0.90586477	      0.29428963	    -20.37208144	     -9.62112945	     -2.58187058	     21.91285621	      0.38245149	    -23.82544728	      0.00000000	      0.00000000	     65.89665082	      6.69261134	     -7.86655562	     78.80287523	      1.37536963	     25.14052599	      0.00000000	      0.00000000	    -23.16883018	    -17.13508185	      3.49378293	     29.87680995	    -16.57372497	     32.64339882	    121.31516477	     88.10127999	      0.00000000	      0.00000000	    -58.40827682	    -32.33359224	    -19.30946936	    120.25369613	      1.34259990	      0.00000000	      0.00000000
      4.29500000	    -14.60576848	     12.46083412	     -1.48591728	     -4.06914621	      0.90829885	      0.29394717	    -20.78926108	     -8.64435911	     -1.34908191	     24.08917858	      0.42043548	    -24.03589646	      0.00000000	      0.00000000	     64.48592418	      6.99080505	     -7.83195684	     75.13701521	      1.31138831	     24.71936611	      0.00000000	      0.00000000	    -23.89046430	    -16.61440065	      3.28698268	     28.18778082	    -17.08132847	     31.93264392	    119.98728622	     88.11253393	      0.00000000	      0.00000000	    -56.92217461	    -32.53449935	    -18.42741194	    120.26091686	      1.33315899	      0.00000000	      0.00000000
      4.30000000	    -14.03933581	     11.96404302	     -0.84895375	     -4.04196012	      0.91076835	      0.29350715	    -21.01568037	     -7.58877213	     -0.34383938	     26.80391613	      0.46781659	    -23.94921173	      0.00000000	      0.00000000	     62.80191038	      7.24677962	     -7.73656618	     71.55374778	      1.24884849	     24.17141207	      0.00000000	      0.00000000	    -24.74042570	    -15.97030520	      3.13746865	     26.34696354	    -17.54903400	     30.92325072	    118.48306979	     88.14645364	      0.00000000	      0.00000000	    -55.04498281	    -32.76049787	    -17.25401668	    120.19188786	      1.34025920	      0.00000000	      0.00000000
      4.30500000	    -13.38475066	     11.43032125	     -0.23566150	     -4.01488829	      0.91318557	      0.29293022	    -21.02423311	     -6.52734504	      0.34169231	     30.04731420	      0.52442456	    -23.66798630	      0.00000000	      0.00000000	     60.89291851	      7.46415228	     -7.60766351	     68.09535372	      1.18848813	     23.49606337	      0.00000000	      0.00000000	    -25.69078639	    -15.24129836	      3.04152546	     24.38847829	    -17.97734623	     29.64829297	    116.83999722	     88.16369736	      0.00000000	      0.00000000	    -52.80435288	    -32.97968140	    -15.81180227	    120.05854525	      1.33765325	      0.00000000	      0.00000000
      4.31000000	    -12.66105979	     10.89292546	      0.35002734	     -3.98798321	      0.91545928	      0.29218260	    -20.79934114	     -5.53328827	      0.64841011	     33.78502854	      0.58965999	    -23.27768532	      0.00000000	      0.00000000	     58.80631733	      7.64894475	     -7.46646668	     64.80089157	      1.13098892	     22.70634897	      0.00000000	      0.00000000	    -26.71809607	    -14.46221529	      2.97139070	     22.36410913	    -18.35582070	     28.14476577	    115.08053546	     88.17841459	      0.00000000	      0.00000000	    -50.26683898	    -33.14718291	    -14.14676503	    119.88336203	      1.33143661	      0.00000000	      0.00000000
      4.31500000	    -11.90851724	     10.38390949	      0.90128055	     -3.96129574	      0.91749148	      0.29124890	    -20.31356538	     -4.68136231	      0.57011204	     37.96299138	      0.66257919	    -22.83174559	      0.00000000	      0.00000000	     56.60562789	      7.80506256	     -7.33877109	     61.69697658	      1.07681538	     21.81784017	      0.00000000	      0.00000000	    -27.76762935	    -13.66925403	      2.95747200	     20.26194785	    -18.68025533	     26.39005500	    113.23755572	     88.18961353	      0.00000000	      0.00000000	    -47.42469862	    -33.29052624	    -12.22997811	    119.65046150	      1.34404520	      0.00000000	      0.00000000
      4.32000000	    -11.15334949	      9.91059336	      1.41879825	     -3.93486988	      0.91919795	      0.29014192	    -19.57254549	     -4.00627408	      0.15265421	     42.49639605	      0.74170203	    -22.33804070	      0.00000000	      0.00000000	     54.33902304	      7.92769391	     -7.23093869	     58.81601264	      1.02653307	     20.85255105	      0.00000000	      0.00000000	    -28.81573660	    -12.87692081	      2.94257930	     18.15585035	    -18.95476100	     24.48826688	    111.34741958	     88.20014442	      0.00000000	      0.00000000	    -44.38001744	    -33.31658427	    -10.18079935	    119.39844931	      1.34294751	      0.00000000	      0.00000000
